<svg width="30" height="35" viewBox="0 0 30 35" fill="none" xmlns="http://www.w3.org/2000/svg">
<path d="M10 8.33333H20C20 5.57192 17.7615 3.33333 15 3.33333C12.2385 3.33333 10 5.57192 10 8.33333ZM6.66667 8.33333C6.66667 3.73097 10.3976 0 15 0C19.6023 0 23.3333 3.73097 23.3333 8.33333H28.3333C29.2538 8.33333 30 9.07953 30 10V33.3333C30 34.2538 29.2538 35 28.3333 35H1.66667C0.7462 35 0 34.2538 0 33.3333V10C0 9.07953 0.7462 8.33333 1.66667 8.33333H6.66667ZM3.33333 11.6667V31.6667H26.6667V11.6667H3.33333ZM10 15C10 17.7615 12.2385 20 15 20C17.7615 20 20 17.7615 20 15H23.3333C23.3333 19.6023 19.6023 23.3333 15 23.3333C10.3976 23.3333 6.66667 19.6023 6.66667 15H10Z" fill="#411F47"/>
</svg>
