<svg width="172" height="56" viewBox="0 0 172 56" fill="none" xmlns="http://www.w3.org/2000/svg">
<path d="M27.6054 53.2441C27.2588 53.2324 26.9176 53.2164 26.5731 53.1909C26.4198 53.1792 26.2632 53.1686 26.1099 53.1548C25.8735 53.1357 25.6413 53.1102 25.4048 53.0825C25.3 53.0708 25.1975 53.057 25.0917 53.0432C24.8185 53.0092 24.5486 52.9709 24.2786 52.9252C24.1685 52.9082 24.054 52.8891 23.9428 52.8689C23.4429 52.7828 22.9451 52.6818 22.456 52.567C22.3167 52.534 22.1774 52.5 22.0381 52.4639C21.9193 52.4362 21.7963 52.4054 21.6807 52.3714C21.4053 52.2991 21.1322 52.2205 20.859 52.1365C20.7391 52.1004 20.6204 52.0642 20.5005 52.0249C20.3526 51.9803 20.2046 51.9293 20.0567 51.8794C19.9315 51.8368 19.8062 51.7954 19.682 51.7476C19.6 51.7199 19.52 51.6923 19.4402 51.6615C19.2977 51.6116 19.1583 51.5584 19.019 51.502C18.4565 51.2863 17.9047 51.0482 17.3649 50.7942C17.2288 50.7294 17.0928 50.6656 16.9588 50.5986C16.4362 50.3435 15.9244 50.0693 15.4212 49.776C15.2873 49.7006 15.1545 49.6219 15.0228 49.5412C13.4798 48.6122 12.0383 47.5208 10.7252 46.2868C10.614 46.1859 10.506 46.0827 10.4013 45.9765C10.2934 45.8734 10.1854 45.766 10.0829 45.6608C9.97489 45.5577 9.87233 45.4514 9.76977 45.342C9.68772 45.2581 9.60457 45.1688 9.52462 45.0816C9.19533 44.7287 8.88004 44.3684 8.57226 43.9986C8.37895 43.769 8.19113 43.5341 8.00973 43.2972C7.91577 43.176 7.82512 43.0559 7.73657 42.9358C7.64591 42.8158 7.55516 42.6925 7.4699 42.5692C7.38785 42.4576 7.30791 42.3449 7.23126 42.2302C7.13731 42.0962 7.04665 41.958 6.9559 41.822C6.87056 41.6956 6.78851 41.5701 6.70866 41.4416C6.62331 41.3129 6.54346 41.1844 6.46681 41.0558C6.22817 40.6668 6.00034 40.2725 5.78221 39.8664C5.70877 39.7314 5.63752 39.5976 5.56948 39.4605C5.49604 39.3265 5.427 39.1884 5.36216 39.0513C5.29412 38.912 5.22608 38.7738 5.16024 38.6347L19.7836 22.636C24.5594 17.9352 32.3305 17.9352 37.1053 22.636L51.7318 38.6347C51.4186 39.2979 51.0753 39.9494 50.706 40.5849C50.6466 40.6859 50.5862 40.7868 50.5235 40.8879C50.4695 40.9772 50.4156 41.0643 50.3615 41.1536C50.2676 41.3077 50.1704 41.4586 50.0722 41.6095C47.5001 45.5579 43.8818 48.7197 39.606 50.7508C36.1151 52.4151 32.3586 53.2601 28.4412 53.2601C28.1593 53.2601 27.8808 53.2547 27.6022 53.2463M2.78254 27.9989C2.78254 14.0707 14.2939 2.74211 28.4433 2.74211C42.5926 2.74211 54.1094 14.0707 54.1094 27.9989C54.1094 30.6963 53.6862 33.329 52.844 35.8532L39.0726 22.3001C33.2116 16.5311 23.6783 16.5311 17.8173 22.3001L4.04589 35.8564C3.20479 33.3322 2.78145 30.6975 2.78145 28M0 27.9989C0 31.4711 0.637075 34.8509 1.88961 38.0543C1.99437 38.3264 2.10554 38.5973 2.22001 38.8652C6.67944 49.2734 16.9718 56 28.4433 56C32.7861 56 36.9508 55.0626 40.8218 53.2133C45.5566 50.9633 49.5647 47.4634 52.4153 43.0878C53.2878 41.7476 54.0501 40.3266 54.6721 38.8631L54.7034 38.7876C54.8027 38.558 54.8967 38.3285 54.9852 38.0989C56.2507 34.8807 56.8921 31.4871 56.8921 27.9989C56.8921 12.5604 44.1302 0 28.4434 0C12.7565 0 9.15732e-05 12.5593 9.15732e-05 27.9989H0Z" fill="url(#paint0_linear_1_118)"/>
<path d="M98.6856 41.6243H94.7756C92.6944 36.3923 90.6404 31.1957 88.5953 26.0258C86.5502 20.8647 84.514 15.6593 82.4689 10.4273L69.4775 41.6244H67.8919L82.8383 5.59432H84.478C86.8384 11.6245 89.1989 17.628 91.5593 23.605C93.9197 29.5818 96.2982 35.5854 98.6856 41.6156" fill="#411F47"/>
<path d="M117.804 4.29086C120.443 4.29086 122.912 4.77858 125.2 5.7452C127.489 6.71181 129.498 8.05087 131.219 9.7446L129.687 11.5093C128.209 9.7446 126.444 8.33461 124.407 7.29706C122.362 6.25951 120.164 5.73636 117.804 5.73636C115.443 5.73636 113.56 6.18866 111.623 7.08425C109.686 7.98876 107.993 9.21253 106.551 10.7733C105.11 12.334 103.974 14.1608 103.146 16.2625C102.317 18.3553 101.902 20.6077 101.902 22.9932C101.902 25.3786 102.317 27.6222 103.146 29.6973C103.974 31.7812 105.11 33.5992 106.551 35.1599C107.993 36.7206 109.686 37.9533 111.623 38.8489C113.56 39.7535 115.623 40.1968 117.804 40.1968C119.984 40.1968 121.903 39.7712 123.777 38.9199C125.642 38.0686 127.29 36.9157 128.714 35.4614C130.137 34.007 131.291 32.2867 132.173 30.3181C133.056 28.3406 133.543 26.2122 133.651 23.9244H117.804V22.47H136.822V22.9933C136.822 25.5561 136.318 27.9771 135.318 30.2472C134.318 32.5174 132.957 34.5038 131.255 36.1975C129.543 37.9002 127.543 39.2392 125.236 40.2235C122.93 41.2079 120.452 41.7044 117.813 41.7044C115.173 41.7044 112.695 41.2079 110.389 40.2235C108.083 39.2391 106.074 37.8913 104.371 36.1975C102.659 34.5038 101.308 32.5174 100.308 30.2472C99.3075 27.9771 98.8031 25.5561 98.8031 22.9933C98.8031 20.4305 99.3075 17.9563 100.308 15.6862C101.308 13.416 102.668 11.4384 104.371 9.76245C106.083 8.07755 108.083 6.74742 110.389 5.76304C112.695 4.77867 115.173 4.28212 117.813 4.28212" fill="#411F47"/>
<path d="M140.894 5.59441H153.255C155.76 5.59441 158.111 6.0733 160.336 7.02216C162.552 7.97985 164.49 9.26572 166.147 10.8974C167.805 12.5292 169.111 14.4357 170.084 16.6172C171.057 18.7986 171.535 21.1398 171.535 23.6316C171.535 26.1234 171.048 28.4646 170.084 30.6461C169.111 32.8275 167.805 34.7342 166.147 36.3658C164.489 37.9975 162.552 39.2833 160.336 40.2411C158.12 41.1988 155.759 41.6688 153.255 41.6688H140.894V5.59441ZM144.534 7.04875V40.2145H151.507C153.832 40.2145 156.003 39.78 158.03 38.911C160.057 38.0419 161.832 36.8536 163.363 35.3461C164.895 33.8386 166.102 32.0827 166.985 30.0697C167.868 28.0567 168.31 25.9107 168.31 23.6228C168.31 21.3349 167.868 19.1888 166.985 17.1758C166.102 15.1628 164.895 13.407 163.363 11.8995C161.832 10.392 160.057 9.20362 158.03 8.33462C156.003 7.46554 153.832 7.03108 151.507 7.03108H144.534V7.04875Z" fill="#411F47"/>
<path d="M74.6489 49.9248V53.4276H74.0183L73.9552 52.0708C73.4686 52.9575 72.6037 53.5429 71.3785 53.5429C69.3874 53.5429 67.8919 52.0176 67.8919 50.1642C67.8919 48.3109 69.4685 46.6881 71.4235 46.6881C73.3785 46.6881 74.2434 47.5128 74.6218 49.0026H73.7839C73.4506 47.9296 72.4235 47.4152 71.4325 47.4152C69.8739 47.4152 68.6757 48.568 68.6757 50.1731C68.6757 51.7781 69.7929 52.8334 71.3695 52.8334C72.9461 52.8334 73.6218 51.8846 73.8021 50.652V49.9425H74.6309L74.6489 49.9248V49.9248Z" fill="#D2AD6C"/>
<path d="M83.6224 50.1111C83.6224 52.0176 82.0548 53.5429 80.1178 53.5429C78.1808 53.5429 76.6132 52.0176 76.6132 50.1111C76.6132 48.2045 78.1808 46.6792 80.1178 46.6792C82.0548 46.6792 83.6224 48.2045 83.6224 50.1111ZM82.8296 50.1111C82.8296 48.6124 81.6403 47.3975 80.1178 47.3975C78.5953 47.3975 77.406 48.6035 77.406 50.1111C77.406 51.6186 78.5953 52.8246 80.1178 52.8246C81.6403 52.8246 82.8296 51.6186 82.8296 50.1111Z" fill="#D2AD6C"/>
<path d="M90.1633 52.7183V53.4278H85.6677V46.7946H86.4515V52.7095H90.1633V52.7183Z" fill="#D2AD6C"/>
<path d="M97.8124 50.0669C97.8124 52.0355 96.3348 53.4278 94.2537 53.4278H91.8843V46.7946H94.2537C96.3349 46.7946 97.8124 48.1514 97.8124 50.058V50.0669ZM97.0105 50.0669C97.0105 48.586 95.8574 47.513 94.2537 47.513H92.6681V52.7184H94.2537C95.8574 52.7184 97.0105 51.6188 97.0105 50.0669Z" fill="#D2AD6C"/>
<path d="M108.038 53.4278L107.155 52.6474C106.569 53.2416 105.857 53.5519 104.983 53.5519C103.551 53.5519 102.596 52.7449 102.596 51.5921C102.596 50.4392 103.182 50.0668 103.965 49.7565C103.542 49.2776 103.344 48.8785 103.344 48.3908C103.344 47.371 104.173 46.6438 105.308 46.6438C106.443 46.6438 107.128 47.3089 107.263 48.4174H106.506C106.407 47.6814 105.929 47.3089 105.299 47.3089C104.668 47.3089 104.128 47.7612 104.128 48.4086C104.128 49.0559 104.722 49.5968 105.848 50.5724L107.083 51.672L108.137 50.1823H108.93L107.632 52.0534C107.614 52.0711 107.605 52.0889 107.578 52.1243L109.047 53.419H108.038V53.4279L108.038 53.4278ZM106.659 52.204L105.209 50.9271C104.92 50.6699 104.668 50.4482 104.443 50.2442C103.794 50.5013 103.344 50.9625 103.344 51.5921C103.344 52.2217 104.019 52.8956 105.001 52.8956C105.983 52.8956 106.191 52.6474 106.659 52.204Z" fill="#D2AD6C"/>
<path d="M119.84 50.0668C119.84 52.0355 118.362 53.4277 116.281 53.4277H113.911V46.7945H116.281C118.362 46.7945 119.84 48.1513 119.84 50.0579V50.0668ZM119.038 50.0668C119.038 48.5859 117.885 47.5129 116.281 47.5129H114.695V52.7183H116.281C117.885 52.7183 119.038 51.6187 119.038 50.0668Z" fill="#D2AD6C"/>
<path d="M122.669 46.8035V53.4367H121.885V46.8035H122.669Z" fill="#D2AD6C"/>
<path d="M129.516 51.5744H126.038L125.209 53.4278H124.372L127.417 46.7946H128.155L131.201 53.4278H130.363L129.534 51.5744H129.516ZM129.201 50.8827L127.777 47.708L126.354 50.8827H129.21H129.201Z" fill="#D2AD6C"/>
<path d="M139.471 53.4277H138.687V48.4883L136.435 52.1596H135.921L133.651 48.4617L133.669 53.4277H132.885V46.7945H133.48L136.173 51.2195L138.867 46.7945H139.462V53.4277H139.471Z" fill="#D2AD6C"/>
<path d="M148.516 50.1109C148.516 52.0174 146.948 53.5427 145.011 53.5427C143.074 53.5427 141.507 52.0174 141.507 50.1109C141.507 48.2043 143.074 46.679 145.011 46.679C146.948 46.679 148.516 48.2043 148.516 50.1109ZM147.723 50.1109C147.723 48.6122 146.534 47.3973 145.011 47.3973C143.489 47.3973 142.3 48.6033 142.3 50.1109C142.3 51.6184 143.489 52.8244 145.011 52.8244C146.534 52.8244 147.723 51.6184 147.723 50.1109Z" fill="#D2AD6C"/>
<path d="M156.309 46.8035V53.4367H155.661L151.354 48.2135V53.4367H150.571V46.8035H151.201L155.526 52.0976V46.8035H156.309Z" fill="#D2AD6C"/>
<path d="M164.571 50.0669C164.571 52.0355 163.093 53.4278 161.012 53.4278H158.643V46.7946H161.012C163.093 46.7946 164.571 48.1514 164.571 50.058V50.0669ZM163.769 50.0669C163.769 48.586 162.616 47.513 161.012 47.513H159.427V52.7184H161.012C162.616 52.7184 163.769 51.6188 163.769 50.0669Z" fill="#D2AD6C"/>
<path d="M171.526 48.6213H170.742C170.589 47.8321 170.031 47.3443 168.932 47.3443C167.832 47.3443 167.301 47.7789 167.301 48.5326C167.301 49.2863 167.724 49.4459 168.526 49.6056L169.625 49.8095C170.833 50.0401 171.517 50.581 171.517 51.5566C171.517 52.5321 170.508 53.543 168.995 53.543C167.481 53.543 166.328 52.736 166.184 51.2994H166.959C167.121 52.2926 167.842 52.8513 169.04 52.8513C170.238 52.8513 170.725 52.3901 170.725 51.6452C170.725 50.9004 170.355 50.7052 169.508 50.5634L168.247 50.315C167.049 50.0933 166.472 49.4903 166.472 48.5769C166.472 47.6636 167.445 46.6792 168.887 46.6792C170.328 46.6792 171.364 47.2556 171.526 48.6213H171.526Z" fill="#D2AD6C"/>
<defs>
<linearGradient id="paint0_linear_1_118" x1="0" y1="28" x2="56.8921" y2="28" gradientUnits="userSpaceOnUse">
<stop stop-color="#F9C5C5"/>
<stop offset="1" stop-color="#DD8796"/>
</linearGradient>
</defs>
</svg>
