<svg width="38" height="33" viewBox="0 0 38 33" fill="none" xmlns="http://www.w3.org/2000/svg">
<path d="M19.0015 2.72878C23.4646 -1.03543 30.3614 -0.910467 34.6603 3.1373C38.9593 7.18506 39.107 13.6338 35.1087 17.8398L18.9995 33L2.89056 17.8398C-1.10759 13.6338 -0.958136 7.17486 3.33892 3.1373C7.64084 -0.904843 14.5256 -1.04102 19.0015 2.72878ZM31.9707 5.65936C29.1225 2.97766 24.524 2.86889 21.5399 5.38581L19.0033 7.52518L16.4653 5.38749C13.4726 2.86703 8.88244 2.97791 6.02587 5.66199C3.19541 8.32152 3.05332 12.5811 5.66176 15.3944L12.3306 21.6705L18.9995 27.9465L32.3376 15.3944C34.947 12.58 34.8054 8.32855 31.9707 5.65936Z" fill="#411F47"/>
</svg>
