<svg width="35" height="35" viewBox="0 0 35 35" fill="none" xmlns="http://www.w3.org/2000/svg">
<path d="M17.5 0C27.1649 0 35 7.83501 35 17.5C35 27.1649 27.1649 35 17.5 35C7.83501 35 0 27.1649 0 17.5C0 7.83501 7.83501 0 17.5 0ZM17.7795 24.5C14.2175 24.5 11.0107 26.0202 8.77233 28.4473C11.1657 30.358 14.1995 31.5 17.5 31.5C20.9466 31.5 24.1022 30.2545 26.5415 28.1892C24.3173 25.913 21.2133 24.5 17.7795 24.5ZM17.5 3.5C9.76801 3.5 3.5 9.76801 3.5 17.5C3.5 20.6686 4.55263 23.5912 6.32725 25.9374C9.19868 22.8972 13.2675 21 17.7795 21C22.1272 21 26.0633 22.7615 28.9131 25.6098C30.542 23.3217 31.5 20.5228 31.5 17.5C31.5 9.76801 25.232 3.5 17.5 3.5ZM17.5 5.25C21.3659 5.25 24.5 8.384 24.5 12.25C24.5 16.1159 21.3659 19.25 17.5 19.25C13.634 19.25 10.5 16.1159 10.5 12.25C10.5 8.384 13.634 5.25 17.5 5.25ZM17.5 8.75C15.5669 8.75 14 10.317 14 12.25C14 14.183 15.5669 15.75 17.5 15.75C19.4331 15.75 21 14.183 21 12.25C21 10.317 19.4331 8.75 17.5 8.75Z" fill="#411F47"/>
</svg>
