<svg width="32" height="32" viewBox="0 0 32 32" fill="none" xmlns="http://www.w3.org/2000/svg">
<path d="M23.1111 24.8889V23.1111H17.7778V17.7778H23.1111V21.3333H26.6667V24.8889H24.8889V28.4444H21.3333V32H17.7778V26.6667H21.3333V24.8889H23.1111ZM32 32H24.8889V28.4444H28.4444V24.8889H32V32ZM0 0H14.2222V14.2222H0V0ZM3.55556 3.55556V10.6667H10.6667V3.55556H3.55556ZM17.7778 0H32V14.2222H17.7778V0ZM21.3333 3.55556V10.6667H28.4444V3.55556H21.3333ZM0 17.7778H14.2222V32H0V17.7778ZM3.55556 21.3333V28.4444H10.6667V21.3333H3.55556ZM26.6667 17.7778H32V21.3333H26.6667V17.7778ZM5.33333 5.33333H8.88889V8.88889H5.33333V5.33333ZM5.33333 23.1111H8.88889V26.6667H5.33333V23.1111ZM23.1111 5.33333H26.6667V8.88889H23.1111V5.33333Z" fill="black"/>
</svg>
